Coordinates
version=1
nRows=14
nColumns=40
inDegrees=yes

Units are S.I. units (second, meters, Newtons, ...)
Angles are in degrees.

endheader
time	pelvis_tilt	pelvis_list	pelvis_rotation	pelvis_tx	pelvis_ty	pelvis_tz	hip_flexion_r	hip_adduction_r	hip_rotation_r	knee_angle_r	knee_angle_r_beta	ankle_angle_r	subtalar_angle_r	mtp_angle_r	hip_flexion_l	hip_adduction_l	hip_rotation_l	knee_angle_l	knee_angle_l_beta	ankle_angle_l	subtalar_angle_l	mtp_angle_l	lumbar_extension	lumbar_bending	lumbar_rotation	arm_flex_r	arm_add_r	arm_rot_r	elbow_flex_r	pro_sup_r	wrist_flex_r	wrist_dev_r	arm_flex_l	arm_add_l	arm_rot_l	elbow_flex_l	pro_sup_l	wrist_flex_l	wrist_dev_l
     24.17128571	     -5.56614271	     -6.37738319	      6.29530541	      1.11100690	      0.91024113	      0.46721405	     -4.45562378	      6.13112467	    -19.54871834	      6.81293246	      6.81293246	     18.12372127	      4.52063072	     -3.33509708	     35.81671946	     -7.03231274	     -6.00059529	     17.45749169	     17.45749169	      3.33620517	     -9.54621393	      6.78974566	     -8.31583059	      7.33837251	      3.29036180	     44.91326483	    -18.16772610	     -9.48682891	     89.82452771	     44.60686215	      0.00000000	      0.00000000	    -17.84059856	     -8.02742147	      0.14999861	     22.09626170	     46.01016771	      0.00000000	      0.00000000
     24.18257143	     -5.66106907	     -6.27629893	      6.03281806	      1.11233499	      0.90874800	      0.46519354	     -4.85759749	      5.77615049	    -19.33823333	      7.36570625	      7.36570625	     18.86599463	      4.66841915	     -2.67151320	     35.60386867	     -6.81564883	     -5.80568891	     18.45043172	     18.45043172	      2.19191186	    -11.21184158	      6.30714072	     -8.05790999	      7.20465343	      3.45231956	     44.48484399	    -17.98704480	     -9.79602403	     92.01122980	     44.58535539	      0.00000000	      0.00000000	    -18.27133505	     -7.93832873	      0.43987994	     21.56924564	     45.95909879	      0.00000000	      0.00000000
     24.19385714	     -5.75052567	     -6.17950458	      5.74087473	      1.11370238	      0.90738437	      0.46314076	     -5.21495656	      5.39993171	    -19.03937855	      7.99021518	      7.99021518	     19.34509433	      4.63292716	     -2.60646776	     35.47158870	     -6.66893092	     -5.68893835	     19.60840867	     19.60840867	      1.40474628	    -12.40302901	      6.31466084	     -7.79421716	      7.07675061	      3.22983927	     44.27979294	    -17.41354503	     -9.76040756	     93.36831576	     44.55071724	      0.00000000	      0.00000000	    -18.81289891	     -7.72520547	      0.53582610	     21.15493813	     45.93588698	      0.00000000	      0.00000000
     24.20514286	     -5.85805519	     -6.01798925	      5.41173212	      1.11511134	      0.90625783	      0.46098616	     -5.42818477	      4.88908822	    -18.71495726	      8.87341219	      8.87341219	     19.84051435	      4.49699807	     -2.49770634	     35.29270152	     -6.43733200	     -5.41889718	     20.61594543	     20.61594543	      0.61150231	    -13.72638737	      6.32648185	     -7.53391809	      6.85923293	      3.12190963	     43.73143411	    -16.97507336	     -9.81824672	     95.06538060	     44.50895898	      0.00000000	      0.00000000	    -19.13874845	     -7.51609043	      0.62145051	     20.74309057	     45.92196140	      0.00000000	      0.00000000
     24.21642857	     -5.94066751	     -5.82012271	      5.08063504	      1.11648455	      0.90546726	      0.45877606	     -5.55675344	      4.29928987	    -18.36016000	      9.95166466	      9.95166466	     20.22531739	      4.21916997	     -2.46491117	     35.10025607	     -6.20191273	     -5.21266652	     21.60006523	     21.60006523	      0.05406331	    -14.79339638	      6.25719478	     -7.32681474	      6.59709257	      3.11189789	     42.93475948	    -16.67569124	     -9.94932760	     96.65452728	     44.47211370	      0.00000000	      0.00000000	    -19.21549046	     -7.34244616	      0.69741430	     20.36134277	     45.91658892	      0.00000000	      0.00000000
     24.22771429	     -6.03147797	     -5.57992936	      4.73549007	      1.11780327	      0.90505719	      0.45646239	     -5.52877365	      3.61745952	    -17.92039269	     11.28400964	     11.28400964	     20.47409633	      3.70240505	     -2.57271671	     34.88484578	     -5.94990386	     -5.07782201	     22.50282858	     22.50282858	     -0.21591168	    -15.63629582	      6.12993987	     -7.13914311	      6.29880844	      3.25122014	     41.77071201	    -16.53138382	    -10.23013589	     98.40496662	     44.43852426	      0.00000000	      0.00000000	    -19.01663517	     -7.21773573	      0.78851760	     19.91610796	     45.91966612	      0.00000000	      0.00000000
     24.23900000	     -6.07230505	     -5.37426117	      4.41753760	      1.11896965	      0.90507970	      0.45408819	     -5.34941730	      2.93097669	    -17.47800419	     12.93733928	     12.93733928	     20.46440255	      2.95668560	     -2.96774506	     34.66651309	     -5.76740110	     -5.02265188	     23.44664467	     23.44664467	     -0.10768522	    -16.20609528	      5.95959425	     -7.01091499	      6.02965677	      3.24399618	     40.63806304	    -16.29539566	    -10.40465104	     99.68729897	     44.41241031	      0.00000000	      0.00000000	    -18.72663572	     -7.04140224	      0.87148587	     19.60794779	     45.92246638	      0.00000000	      0.00000000
     24.25028571	     -6.08563509	     -5.14005267	      4.11998926	      1.12000732	      0.90550879	      0.45160697	     -4.96122419	      2.16173881	    -16.97860876	     14.99299115	     14.99299115	     20.23662157	      1.89787079	     -3.63414099	     34.37662304	     -5.56804040	     -5.04919415	     24.30265325	     24.30265325	      0.29117196	    -16.59987672	      5.77334099	     -6.94471154	      5.74462316	      3.17933586	     39.34666077	    -16.05784098	    -10.52626044	    100.74861902	     44.38906847	      0.00000000	      0.00000000	    -18.31096042	     -6.91566839	      0.93832759	     19.41325589	     45.92934130	      0.00000000	      0.00000000
     24.26157143	     -6.13119930	     -4.93312949	      3.84419982	      1.12081280	      0.90627213	      0.44901877	     -4.22189306	      1.36611153	    -16.39058146	     17.55496246	     17.55496246	     19.63601580	      0.34624653	     -4.71760870	     34.05177665	     -5.38345721	     -5.11348243	     24.99611299	     24.99611299	      0.89696620	    -16.83312830	      5.64699575	     -6.87049878	      5.51152666	      3.20363740	     37.79328382	    -15.91887255	    -10.70835899	    101.83349351	     44.36813747	      0.00000000	      0.00000000	    -17.67879272	     -6.77700959	      1.00612792	     19.29263463	     45.94184703	      0.00000000	      0.00000000
     24.27285714	     -6.12449363	     -4.79952196	      3.59798734	      1.12146908	      0.90745726	      0.44649448	     -3.41064247	      0.74655436	    -15.46902486	     20.09514661	     20.09514661	     17.63055459	     -2.40338899	     -8.62249816	     33.63376481	     -5.26576474	     -5.16698123	     25.62897311	     25.62897311	      2.00325444	    -16.89520108	      6.15553630	     -6.90823810	      5.36061002	      3.95207057	     35.27188068	    -16.36802190	    -11.83739905	    104.06264816	     44.38334251	      0.00000000	      0.00000000	    -16.30496869	     -6.86318933	      1.21389030	     18.68214465	     45.97729889	      0.00000000	      0.00000000
     24.28414286	     -6.08165160	     -4.59164385	      3.35483291	      1.12187556	      0.90891719	      0.44379751	     -2.25365128	     -0.07866864	    -14.78485658	     23.33460301	     23.33460301	     15.76305561	     -4.99336882	    -11.53164142	     33.07633733	     -5.09365948	     -5.43039236	     26.08038410	     26.08038410	      2.89524450	    -16.86185495	      6.00108732	     -6.97281198	      5.15311408	      3.82075670	     33.59729648	    -16.18475355	    -11.87534536	    104.41144380	     44.42172067	      0.00000000	      0.00000000	    -15.41512018	     -6.73408022	      1.37389472	     18.87892856	     45.99101208	      0.00000000	      0.00000000
     24.29542857	     -5.94273913	     -4.32338799	      3.11716964	      1.12218559	      0.91065080	      0.44100634	     -0.85303648	     -1.13886812	    -14.50159462	     27.28736565	     27.28736565	     14.57630930	     -6.51437715	    -12.15378656	     32.29414894	     -4.86347442	     -5.81603227	     26.33164518	     26.33164518	      3.72387793	    -16.76949717	      5.53467232	     -7.14377391	      4.88005667	      3.46129543	     31.97155078	    -15.77571068	    -11.62309711	    104.14444273	     44.42169305	      0.00000000	      0.00000000	    -14.61000568	     -6.67765989	      1.40031224	     19.23070558	     46.00403634	      0.00000000	      0.00000000
     24.30671429	     -6.00048360	     -4.15045839	      2.89602908	      1.12204802	      0.91219347	      0.43833107	      1.09189898	     -2.03716799	    -13.89816707	     31.62020967	     31.62020967	     12.96928056	     -8.75298158	    -12.70160996	     31.61443476	     -4.69663953	     -6.22460674	     26.29769012	     26.29769012	      4.48650778	    -16.52030887	      5.08107389	     -7.09683513	      4.74015304	      3.20825391	     30.16741325	    -15.59893467	    -11.44285426	    103.82244712	     44.42664200	      0.00000000	      0.00000000	    -13.66261554	     -6.62159691	      1.40087548	     19.76302108	     46.02354777	      0.00000000	      0.00000000
     24.31800000	     -5.96353190	     -3.98874926	      2.66461262	      1.12185055	      0.91389066	      0.43575981	      3.07339016	     -2.87748799	    -13.25733912	     36.02789088	     36.02789088	     11.13777921	    -10.95943236	    -12.93192150	     30.78977210	     -4.56024311	     -6.70231771	     26.19724862	     26.19724862	      5.22922304	    -16.19431925	      4.57950832	     -7.17127170	      4.59449178	      3.00031058	     28.22950468	    -15.44225761	    -11.26470965	    103.32080320	     44.43623255	      0.00000000	      0.00000000	    -12.58768739	     -6.65201274	      1.38067849	     20.40322568	     46.04802366	      0.00000000	      0.00000000
